<?xml version="1.0" standalone="no"?>
<!DOCTYPE svg PUBLIC "-//W3C//DTD SVG 20010904//EN"
 "http://www.w3.org/TR/2001/REC-SVG-20010904/DTD/svg10.dtd">
<svg version="1.0" xmlns="http://www.w3.org/2000/svg"
 width="300.000000pt" height="300.000000pt" viewBox="0 0 300.000000 300.000000"
 preserveAspectRatio="xMidYMid meet">
<metadata>
Created by potrace 1.10, written by Peter Selinger 2001-2011
</metadata>
<g transform="translate(0.000000,300.000000) scale(0.100000,-0.100000)"
fill="currentColor" stroke="none">
<path d="M1435 2237 c-17 -14 -28 -36 -32 -63 -4 -33 -1 -45 21 -71 20 -23 26
-42 26 -76 l0 -46 -203 -3 -204 -3 -36 -28 c-48 -36 -66 -72 -74 -147 -6 -58
-7 -60 -35 -60 -19 0 -40 -10 -59 -29 -28 -29 -29 -33 -29 -126 0 -93 1 -97
29 -126 20 -19 40 -29 60 -29 31 0 31 -1 32 -52 0 -29 0 -78 -1 -109 -1 -61
19 -124 48 -145 9 -7 37 -14 62 -14 37 0 42 -3 27 -11 -11 -6 -29 -9 -43 -6
-13 2 -21 0 -18 -4 8 -14 60 -10 73 4 6 8 9 16 7 18 -3 3 11 22 30 44 l34 40
21 -25 c18 -21 20 -33 15 -80 -10 -103 32 -159 102 -134 28 10 45 48 57 127 6
40 31 60 46 36 5 -8 9 -74 9 -147 0 -151 11 -192 60 -220 16 -9 30 -23 30 -30
0 -9 10 -11 38 -6 53 9 82 31 99 74 14 36 17 38 49 33 22 -4 34 -2 34 6 0 6
-16 11 -35 11 -19 0 -35 5 -35 10 0 6 14 10 30 10 17 0 30 5 30 10 0 6 -12 9
-27 8 l-28 -3 -3 80 c-4 104 2 127 31 123 18 -2 23 -11 27 -50 10 -80 68 -114
118 -68 19 18 22 31 22 98 0 79 9 102 39 102 9 -1 25 -15 36 -32 28 -44 48
-54 81 -43 45 16 68 57 72 130 l4 64 42 4 41 4 -42 1 c-31 1 -43 6 -43 17 0
11 11 15 40 15 22 0 40 4 40 9 0 5 -18 7 -39 4 l-39 -5 0 46 c0 45 0 46 32 46
42 0 84 32 88 68 3 25 6 27 61 30 31 2 57 7 57 11 0 4 -24 6 -54 3 -33 -3 -56
0 -60 7 -5 8 14 11 61 12 l68 2 -57 6 c-31 3 -60 10 -65 15 -4 5 26 5 70 1 53
-5 77 -3 77 4 0 7 -29 11 -81 11 -46 0 -78 4 -74 9 3 5 30 7 60 4 38 -4 55 -2
55 6 0 7 -22 11 -61 11 -37 0 -58 4 -54 10 3 6 18 11 33 11 27 1 27 1 -3 8
-39 8 -35 24 7 32 l33 6 -37 2 c-25 1 -45 9 -62 26 -17 17 -36 25 -61 25 -33
0 -35 2 -35 31 l0 31 58 -3 c32 -2 58 0 59 6 1 6 -22 9 -58 7 -49 -3 -59 -1
-59 12 0 10 9 16 25 16 14 0 25 5 25 11 0 7 -10 9 -25 6 -21 -3 -29 1 -40 24
-8 15 -15 30 -15 31 0 2 32 2 70 0 47 -3 70 -1 70 7 0 7 -28 11 -79 11 -59 0
-82 4 -92 16 -11 14 -8 15 29 9 23 -3 42 -2 42 3 0 12 -160 22 -362 22 l-168
0 0 45 c0 38 3 45 20 45 15 0 20 7 20 25 0 23 3 25 52 25 28 0 48 3 44 7 -4 4
-25 6 -46 4 -31 -2 -40 1 -40 13 0 12 10 16 40 16 23 0 40 5 40 11 0 7 -14 10
-36 7 -33 -4 -37 -1 -46 24 -20 57 -114 77 -163 35z m50 -145 c-3 -3 -16 5
-30 18 -35 33 -34 81 3 110 l27 22 3 -72 c2 -40 0 -75 -3 -78z m69 116 c23
-33 20 -71 -9 -98 l-25 -23 0 71 c0 75 8 87 34 50z m-58 -199 c-3 -34 -6 -86
-6 -115 l0 -54 -170 0 c-251 0 -250 1 -250 -246 0 -246 -2 -244 242 -244 l178
0 0 -290 c0 -172 -4 -290 -9 -290 -5 0 -19 12 -30 26 -19 24 -21 40 -21 169 0
129 -2 145 -21 169 -42 53 -83 24 -94 -67 -4 -37 -14 -66 -26 -78 -24 -24 -34
-24 -59 1 -17 17 -20 33 -20 99 0 64 -4 83 -21 105 -29 37 -49 33 -96 -19 -22
-25 -47 -45 -56 -45 -9 0 -29 11 -44 24 l-28 24 -3 332 c-3 326 -2 331 19 370
40 71 74 80 302 80 l197 0 0 55 c0 35 4 55 11 55 8 0 10 -18 5 -61z m34 7 l0
-55 209 -3 c193 -3 212 -5 237 -24 56 -41 64 -62 62 -154 -2 -164 -1 -276 5
-418 8 -159 -1 -203 -48 -224 -22 -10 -29 -8 -50 12 -15 14 -23 30 -20 40 6
20 -13 46 -41 54 -22 7 -74 -26 -74 -47 0 -6 7 -1 16 11 18 26 56 29 78 6 23
-22 20 -24 -15 -11 -46 18 -68 -14 -71 -102 l-2 -66 -6 75 -6 75 -2 -75 c-2
-92 -21 -120 -56 -84 -9 8 -16 11 -16 5 0 -5 7 -17 16 -26 15 -14 18 -14 40 0
28 18 31 6 6 -25 -16 -19 -22 -21 -40 -11 -26 14 -24 8 -26 95 -2 73 -17 97
-60 95 -19 -1 -18 -2 3 -8 13 -3 31 -17 40 -31 l16 -24 -25 17 c-31 22 -36 21
-60 -3 -17 -17 -20 -33 -20 -117 0 -67 -3 -93 -10 -83 -8 12 -10 9 -10 -13 0
-18 4 -26 11 -21 8 4 9 -4 4 -27 -8 -38 -39 -74 -72 -84 -20 -5 -23 -3 -23 19
0 15 6 26 13 26 21 0 46 33 53 71 l7 34 -32 -42 c-17 -24 -33 -43 -36 -43 -3
0 -5 117 -5 260 l0 260 171 0 c185 0 215 7 238 57 7 14 11 94 11 198 0 169 -1
175 -24 202 l-24 28 -186 3 -185 3 -3 115 c-2 63 0 114 5 114 4 0 7 -24 7 -54z
m-40 -360 c0 -152 0 -154 -21 -149 -17 5 -20 2 -17 -13 2 -11 11 -18 21 -18
14 2 17 -7 17 -47 l0 -49 -175 0 c-230 0 -215 -15 -215 206 0 160 6 198 34
216 6 4 89 8 184 8 l172 0 0 -154z m220 134 c176 0 190 -4 190 -47 0 -20 -6
-23 -37 -25 l-38 -1 38 -4 c43 -5 50 -22 10 -24 l-28 -2 28 -4 c22 -4 27 -9
27 -34 0 -27 -3 -29 -37 -31 l-38 -1 38 -4 c33 -4 37 -7 37 -34 0 -27 -2 -29
-41 -29 -28 0 -39 4 -36 13 2 6 15 11 29 9 15 -2 29 2 33 7 4 7 -7 11 -28 11
-29 0 -36 4 -41 25 -18 70 -103 89 -157 36 -22 -22 -29 -39 -29 -68 1 -89 99
-132 158 -70 17 18 30 22 66 19 43 -4 46 -6 46 -31 0 -27 -2 -28 -77 -39 l-78
-10 78 5 c76 5 77 4 77 -19 0 -51 -7 -53 -200 -58 l-180 -5 0 52 c0 49 2 53
23 50 14 -1 22 3 22 13 0 9 -9 15 -22 14 -23 -1 -23 0 -23 155 0 120 3 152 12
143 8 -8 62 -12 178 -12z m-780 -200 l0 -130 -27 0 c-51 0 -58 12 -63 110 -6
103 0 127 32 140 57 23 58 21 58 -120z m1214 109 c25 -19 26 -25 26 -110 0
-101 -15 -129 -70 -129 l-30 0 0 130 0 130 24 0 c13 0 35 -9 50 -21z m-368
-65 c60 -59 -23 -146 -89 -94 -33 26 -36 71 -7 100 27 27 66 25 96 -6z"/>
<path d="M1063 1919 c-17 -5 -41 -21 -52 -35 -19 -24 -21 -39 -19 -143 l2
-116 3 115 c4 108 5 116 30 142 l27 28 143 0 c89 0 143 4 143 10 0 13 -233 12
-277 -1z"/>
<path d="M1203 1883 c43 -2 110 -2 150 0 40 1 5 3 -78 3 -82 0 -115 -2 -72 -3z"/>
<path d="M1020 1482 l0 -109 48 -45 48 -45 178 -7 c98 -4 181 -5 184 -2 3 3
-27 6 -66 6 -41 0 -72 4 -72 10 0 6 -43 10 -110 10 l-110 0 -40 36 -40 36 0
104 c0 58 -4 106 -10 109 -6 4 -10 -33 -10 -103z"/>
<path d="M1264 1241 c7 -10 83 -7 93 3 4 3 -17 6 -46 6 -29 0 -50 -4 -47 -9z"/>
<path d="M1708 1933 c39 -2 105 -2 145 0 39 1 7 3 -73 3 -80 0 -112 -2 -72 -3z"/>
<path d="M1968 1905 c31 -25 32 -30 34 -103 l2 -77 3 74 c4 78 -5 100 -52 123
-11 5 -5 -2 13 -17z"/>
<path d="M1982 1473 l-2 -92 -44 -36 -44 -36 -131 -1 c-72 -1 -131 -5 -131
-10 0 -4 58 -8 129 -8 l130 0 51 48 51 47 -3 90 -4 90 -2 -92z"/>
<path d="M2002 1240 c-8 -16 -17 -28 -21 -26 -4 3 -12 -4 -19 -15 -11 -17 -9
-19 13 -19 28 0 48 29 43 66 -3 25 -3 25 -16 -6z"/>
<path d="M1144 1719 c-16 -4 18 -7 75 -8 57 0 101 2 98 5 -9 9 -136 11 -173 3z"/>
<path d="M1265 1681 c-74 -21 -97 -93 -49 -150 21 -26 33 -31 69 -31 36 0 48
5 69 31 33 39 33 79 1 117 -26 31 -56 42 -90 33z m66 -42 c45 -45 -3 -129 -65
-113 -35 8 -59 54 -47 88 19 47 76 61 112 25z"/>
<path d="M1134 1458 c-3 -5 28 -7 68 -7 75 2 69 6 -15 11 -27 2 -51 0 -53 -4z"/>
<path d="M1760 1720 c0 -5 14 -10 30 -10 17 0 30 5 30 10 0 6 -13 10 -30 10
-16 0 -30 -4 -30 -10z"/>
<path d="M1590 1660 c0 -5 11 -10 24 -10 14 0 28 5 31 10 4 6 -7 10 -24 10
-17 0 -31 -4 -31 -10z"/>
<path d="M1160 2033 c0 -10 32 -13 125 -13 72 0 125 4 125 9 0 6 -56 11 -125
13 -95 2 -125 0 -125 -9z"/>
<path d="M1580 2030 c0 -6 57 -10 150 -10 93 0 150 4 150 10 0 6 -57 10 -150
10 -93 0 -150 -4 -150 -10z"/>
<path d="M800 1850 c0 -5 24 -10 54 -10 30 0 58 5 61 10 4 6 -17 10 -54 10
-34 0 -61 -4 -61 -10z"/>
<path d="M800 1810 c0 -5 24 -10 54 -10 30 0 58 5 61 10 4 6 -17 10 -54 10
-34 0 -61 -4 -61 -10z"/>
<path d="M732 1659 c2 -6 7 -10 11 -10 4 1 16 1 27 1 11 0 20 5 20 10 0 6 -14
10 -31 10 -17 0 -29 -5 -27 -11z"/>
<path d="M655 1601 c-9 -16 7 -18 65 -11 30 4 44 8 30 9 -14 1 -39 4 -57 7
-18 2 -35 0 -38 -5z"/>
<path d="M720 1534 c0 -12 6 -15 23 -10 12 3 29 6 37 6 13 0 13 1 0 10 -24 16
-60 12 -60 -6z"/>
<path d="M2120 1390 c0 -5 25 -10 55 -10 30 0 55 5 55 10 0 6 -25 10 -55 10
-30 0 -55 -4 -55 -10z"/>
<path d="M800 1350 c0 -5 25 -10 56 -10 34 0 53 4 49 10 -3 6 -28 10 -56 10
-27 0 -49 -4 -49 -10z"/>
<path d="M845 1310 c8 -13 45 -13 65 0 11 7 3 10 -28 10 -26 0 -41 -4 -37 -10z"/>
</g>
</svg>
